<mxfile host="app.diagrams.net" modified="2023-05-29T07:13:06.086Z" agent="Mozilla/5.0 (Macintosh; Intel Mac OS X 10_15_7) AppleWebKit/537.36 (KHTML, like Gecko) Chrome/113.0.0.0 Safari/537.36" etag="bJU_ryWUW-tvrMxxy1vW" version="21.3.3" type="github">
  <diagram name="第 1 页" id="1V1sE6A911Y9fn_DtB_x">
    <mxGraphModel dx="984" dy="584" grid="1" gridSize="10" guides="1" tooltips="1" connect="1" arrows="1" fold="1" page="1" pageScale="1" pageWidth="827" pageHeight="1169" math="0" shadow="0">
      <root>
        <mxCell id="0" />
        <mxCell id="1" parent="0" />
        <mxCell id="4rBUBjm7q3Io2zrLkCTQ-1" value="输入活动号" style="rounded=1;whiteSpace=wrap;html=1;" vertex="1" parent="1">
          <mxGeometry x="380" y="125" width="100" height="50" as="geometry" />
        </mxCell>
        <mxCell id="4rBUBjm7q3Io2zrLkCTQ-2" value="是否有权限" style="html=1;whiteSpace=wrap;aspect=fixed;shape=isoRectangle;" vertex="1" parent="1">
          <mxGeometry x="370" y="200" width="120" height="72" as="geometry" />
        </mxCell>
        <mxCell id="4rBUBjm7q3Io2zrLkCTQ-3" value="查询活动节点数据" style="rounded=1;whiteSpace=wrap;html=1;" vertex="1" parent="1">
          <mxGeometry x="380" y="315" width="100" height="50" as="geometry" />
        </mxCell>
        <mxCell id="4rBUBjm7q3Io2zrLkCTQ-4" value="查询链路信息" style="rounded=1;whiteSpace=wrap;html=1;" vertex="1" parent="1">
          <mxGeometry x="380" y="405" width="100" height="50" as="geometry" />
        </mxCell>
        <mxCell id="4rBUBjm7q3Io2zrLkCTQ-5" value="组装拓扑图数据" style="rounded=1;whiteSpace=wrap;html=1;" vertex="1" parent="1">
          <mxGeometry x="380" y="485" width="100" height="50" as="geometry" />
        </mxCell>
        <mxCell id="4rBUBjm7q3Io2zrLkCTQ-6" value="数据展示" style="rounded=1;whiteSpace=wrap;html=1;" vertex="1" parent="1">
          <mxGeometry x="380" y="575" width="100" height="50" as="geometry" />
        </mxCell>
        <mxCell id="4rBUBjm7q3Io2zrLkCTQ-7" value="提示无权限查看" style="rounded=1;whiteSpace=wrap;html=1;" vertex="1" parent="1">
          <mxGeometry x="600" y="405" width="100" height="50" as="geometry" />
        </mxCell>
        <mxCell id="4rBUBjm7q3Io2zrLkCTQ-8" value="" style="endArrow=classic;html=1;rounded=0;exitX=0;exitY=0.5;exitDx=0;exitDy=0;" edge="1" parent="1" source="4rBUBjm7q3Io2zrLkCTQ-18" target="4rBUBjm7q3Io2zrLkCTQ-1">
          <mxGeometry width="50" height="50" relative="1" as="geometry">
            <mxPoint x="430" y="100" as="sourcePoint" />
            <mxPoint x="440" y="420" as="targetPoint" />
          </mxGeometry>
        </mxCell>
        <mxCell id="4rBUBjm7q3Io2zrLkCTQ-9" value="" style="endArrow=classic;html=1;rounded=0;" edge="1" parent="1" source="4rBUBjm7q3Io2zrLkCTQ-5" target="4rBUBjm7q3Io2zrLkCTQ-6">
          <mxGeometry width="50" height="50" relative="1" as="geometry">
            <mxPoint x="560" y="540" as="sourcePoint" />
            <mxPoint x="440" y="220" as="targetPoint" />
          </mxGeometry>
        </mxCell>
        <mxCell id="4rBUBjm7q3Io2zrLkCTQ-10" value="" style="endArrow=classic;html=1;rounded=0;" edge="1" parent="1" source="4rBUBjm7q3Io2zrLkCTQ-3" target="4rBUBjm7q3Io2zrLkCTQ-4">
          <mxGeometry width="50" height="50" relative="1" as="geometry">
            <mxPoint x="390" y="370" as="sourcePoint" />
            <mxPoint x="440" y="320" as="targetPoint" />
          </mxGeometry>
        </mxCell>
        <mxCell id="4rBUBjm7q3Io2zrLkCTQ-11" value="" style="endArrow=classic;html=1;rounded=0;" edge="1" parent="1" source="4rBUBjm7q3Io2zrLkCTQ-4" target="4rBUBjm7q3Io2zrLkCTQ-5">
          <mxGeometry width="50" height="50" relative="1" as="geometry">
            <mxPoint x="390" y="370" as="sourcePoint" />
            <mxPoint x="440" y="320" as="targetPoint" />
          </mxGeometry>
        </mxCell>
        <mxCell id="4rBUBjm7q3Io2zrLkCTQ-12" value="" style="html=1;verticalAlign=bottom;endArrow=block;rounded=0;" edge="1" parent="1" target="4rBUBjm7q3Io2zrLkCTQ-3">
          <mxGeometry x="0.0222" width="80" relative="1" as="geometry">
            <mxPoint x="430" y="270" as="sourcePoint" />
            <mxPoint x="430" y="260" as="targetPoint" />
            <mxPoint as="offset" />
          </mxGeometry>
        </mxCell>
        <mxCell id="4rBUBjm7q3Io2zrLkCTQ-13" value="" style="html=1;verticalAlign=bottom;endArrow=block;rounded=0;" edge="1" parent="1" source="4rBUBjm7q3Io2zrLkCTQ-2" target="4rBUBjm7q3Io2zrLkCTQ-7">
          <mxGeometry x="0.003" width="80" relative="1" as="geometry">
            <mxPoint x="700" y="230" as="sourcePoint" />
            <mxPoint x="450" y="240" as="targetPoint" />
            <Array as="points">
              <mxPoint x="650" y="240" />
            </Array>
            <mxPoint as="offset" />
          </mxGeometry>
        </mxCell>
        <mxCell id="4rBUBjm7q3Io2zrLkCTQ-14" value="" style="edgeStyle=elbowEdgeStyle;elbow=horizontal;endArrow=classic;html=1;curved=0;rounded=0;endSize=8;startSize=8;exitX=0.5;exitY=1;exitDx=0;exitDy=0;" edge="1" parent="1" source="4rBUBjm7q3Io2zrLkCTQ-7">
          <mxGeometry width="50" height="50" relative="1" as="geometry">
            <mxPoint x="390" y="530" as="sourcePoint" />
            <mxPoint x="430" y="670" as="targetPoint" />
            <Array as="points">
              <mxPoint x="650" y="550" />
            </Array>
          </mxGeometry>
        </mxCell>
        <mxCell id="4rBUBjm7q3Io2zrLkCTQ-15" value="" style="endArrow=classic;html=1;rounded=0;" edge="1" parent="1" source="4rBUBjm7q3Io2zrLkCTQ-6" target="4rBUBjm7q3Io2zrLkCTQ-19">
          <mxGeometry width="50" height="50" relative="1" as="geometry">
            <mxPoint x="390" y="530" as="sourcePoint" />
            <mxPoint x="430" y="660" as="targetPoint" />
          </mxGeometry>
        </mxCell>
        <mxCell id="4rBUBjm7q3Io2zrLkCTQ-16" value="" style="endArrow=classic;html=1;rounded=0;" edge="1" parent="1" source="4rBUBjm7q3Io2zrLkCTQ-1" target="4rBUBjm7q3Io2zrLkCTQ-2">
          <mxGeometry width="50" height="50" relative="1" as="geometry">
            <mxPoint x="390" y="230" as="sourcePoint" />
            <mxPoint x="440" y="180" as="targetPoint" />
          </mxGeometry>
        </mxCell>
        <mxCell id="4rBUBjm7q3Io2zrLkCTQ-17" value="" style="ellipse;shape=startState;fillColor=#000000;strokeColor=#000000;" vertex="1" parent="1">
          <mxGeometry x="414" y="70" width="30" height="30" as="geometry" />
        </mxCell>
        <mxCell id="4rBUBjm7q3Io2zrLkCTQ-18" value="开始" style="text;html=1;strokeColor=none;fillColor=none;align=center;verticalAlign=middle;whiteSpace=wrap;rounded=0;" vertex="1" parent="1">
          <mxGeometry x="429" y="70" width="60" height="30" as="geometry" />
        </mxCell>
        <mxCell id="4rBUBjm7q3Io2zrLkCTQ-19" value="" style="ellipse;shape=endState;fillColor=#000000;strokeColor=#330000;" vertex="1" parent="1">
          <mxGeometry x="416.5" y="690" width="30" height="30" as="geometry" />
        </mxCell>
        <mxCell id="4rBUBjm7q3Io2zrLkCTQ-20" value="结束" style="text;html=1;strokeColor=none;fillColor=none;align=center;verticalAlign=middle;whiteSpace=wrap;rounded=0;" vertex="1" parent="1">
          <mxGeometry x="441.5" y="690" width="60" height="30" as="geometry" />
        </mxCell>
        <mxCell id="4rBUBjm7q3Io2zrLkCTQ-21" value="是" style="text;html=1;strokeColor=none;fillColor=none;align=center;verticalAlign=middle;whiteSpace=wrap;rounded=0;" vertex="1" parent="1">
          <mxGeometry x="410" y="272" width="60" height="30" as="geometry" />
        </mxCell>
        <mxCell id="4rBUBjm7q3Io2zrLkCTQ-23" value="否" style="text;html=1;strokeColor=none;fillColor=none;align=center;verticalAlign=middle;whiteSpace=wrap;rounded=0;" vertex="1" parent="1">
          <mxGeometry x="488" y="212" width="60" height="30" as="geometry" />
        </mxCell>
      </root>
    </mxGraphModel>
  </diagram>
</mxfile>
